<?xml version="1.0" encoding="utf-8"?>
<!-- Generator: Adobe Illustrator 19.2.1, SVG Export Plug-In . SVG Version: 6.00 Build 0)  -->
<svg version="1.1" id="Calque_1" xmlns="http://www.w3.org/2000/svg" xmlns:xlink="http://www.w3.org/1999/xlink" x="0px" y="0px"
	 viewBox="0 0 88 88" style="enable-background:new 0 0 88 88;" xml:space="preserve">
<style type="text/css">
	.st0{fill:#FFFFFF;}
</style>
<g id="Ebene_9">
	<g>
		<path class="st0" d="M85,41.7c0,3.9-0.1,8.4-0.4,13.3L84.4,58v4.3c0,0.9-0.4,1.3-1.4,1.3h-5.2c0-0.4,0.1-1.4,0.1-3.7
			c0.3-5.2,0.4-9.7,0.4-13.5c0-3.2-2.1-7-3.8-8.7L74,37.1l-1.2-2.2c1.7-0.1,2.6-0.3,2.6-0.7c0-3.2-1.3-4.1-5.7-4.1
			c-5.7-9.6-6.7-9.7-9.1-10.1c-3.6-0.3-9.4-0.6-17.3-0.6c-6.1,0-11.4,0.1-15.8,0.4c2.5-3.6,4.5-5.3,6-5.3l4.2-0.2
			c5.6-0.2,9.7-0.3,12.3-0.3c2.3,0,6.5,0.1,12.5,0.3l4.7,0.2c0.8,0,1.8,0.6,2.9,1.8c1.2,1.1,3.3,3.9,6.3,8.4
			c4.1,0.4,5.6,0.8,5.6,4.2c0,0.3-0.9,0.6-2.6,0.7l1.3,2.1l0.6,0.8l1.6,2.2c1.1,1.7,1.8,2.9,2,3.6C84.9,39,85,40.1,85,41.7L85,41.7
			L85,41.7z M72.5,51.9c0,2.7-0.2,7.1-0.6,13.3c0,2.1-0.1,2.9-0.1,3.2v4.3c0,0.9-0.4,1.3-1.3,1.3h-6.1c-1,0-1.4-0.4-1.4-1.3v-4.3h-8
			l-3.2-4.5c-0.4-0.6-1-0.9-1.6-1.1c-1.2-0.4-5.6-0.6-12.4-0.6c-11.1,0.1-13.5,0-13.9,1.7l-3.1,4.5h-8.2v4.3c0,0.9-0.4,1.3-1.3,1.3
			H5c-1,0-1.4-0.4-1.4-1.3v-5.6c-0.1-1.4-0.3-3.7-0.4-6.8C3,57.3,3,54.5,3,51.9c0-3.9,2.1-7.5,3.9-9.1L7.5,42
			c0.3-0.4,0.7-1.2,1.2-2.2c-1.7-0.1-2.6-0.3-2.6-0.6c0-3.2,1.3-4.2,5.7-4.2c2.8-4.5,4.7-7.2,5.9-8.4c1.2-1.2,2.3-1.8,3.2-1.8
			c0.1,0,4.3-0.6,16.5-0.6c2.3,0,6.5,0.1,12.5,0.3l4.7,0.2c0.9,0,2,0.6,3.2,1.8s3.2,4,6,8.4c4.1,0,5.6,0.7,5.6,4.1
			c0,0.4-0.8,0.7-2.6,0.7l1.9,3l1.6,2.2c1.1,1.7,1.8,2.9,2,3.6C72.4,49.3,72.5,50.5,72.5,51.9L72.5,51.9L72.5,51.9z M11.9,46
			l-0.8-0.1c-2.3,0-2.9,1.1-2.9,3.2c0,3.2,0.6,4.1,1.8,4.2l8.6,1.6l-1.1-5.6l-5.2-3.2C12.1,46.1,12,46.1,11.9,46L11.9,46L11.9,46z
			 M67.4,50.7c0-3.2-0.6-4.8-2.9-4.8L63.6,46c-0.1,0.1-0.2,0.1-0.3,0.1l-5.1,3.2l-1.2,5.6l8.6-1.6c0.1,0,0.3-0.1,0.8-0.2
			c0.4-0.2,0.8-0.6,1-1C67.4,52,67.4,51.5,67.4,50.7L67.4,50.7L67.4,50.7z M40.1,50.7h15.8c0-1.4-1.1-1.3-1.1-1.3l-17-0.9l-17,0.9
			c-0.6,0-1,0.4-1.1,1.3h15.8c-0.3,0.2-0.7,0.7-0.9,1.3H19.8l0.6,1.3l14.3,0.9c0.4,0.8,0.9,1.2,1.2,1.4l-14.8-1
			c0.3,0.7,0.8,1.1,1.1,1.2c0.6,0.3,2.9,0.7,6.9,1.1c4.1,0.4,7,0.7,8.7,0.8c1.7-0.1,4.5-0.3,8.6-0.8c4.1-0.4,6.5-0.8,7-1.1
			c0.3-0.1,0.8-0.6,1.1-1.2l-14.8,1c0.6-0.3,0.9-0.9,1.2-1.4l14.4-0.9c0.3-0.9,0.4-1.3,0.4-1.3H41C40.8,51.4,40.4,50.9,40.1,50.7
			L40.1,50.7L40.1,50.7z M48.6,65.7l0.4,0.4l2.5,3.7H24.1l2.7-3.8l1.1-1h19.9L48.6,65.7L48.6,65.7z"/>
	</g>
</g>
<g id="Ebene_1">
</g>
</svg>
