<?xml version="1.0" encoding="utf-8"?>
<!-- Generator: Adobe Illustrator 18.1.1, SVG Export Plug-In . SVG Version: 6.00 Build 0)  -->
<svg version="1.1" id="Ebene_1" xmlns="http://www.w3.org/2000/svg" xmlns:xlink="http://www.w3.org/1999/xlink" x="0px" y="0px"
	 viewBox="0 0 70 60" enable-background="new 0 0 70 60" xml:space="preserve">
<path fill="#FFFFFF" d="M65.7,16.9l4.4-0.8l0-3.8l-4.4-0.8l-1-2.5l2.6-3.7l-2.7-2.7l-3.7,2.6l-2.5-1L57.7,0L54,0l-0.8,4.4l-2.5,1
	l-3.7-2.6l-2.7,2.7L47,9.2l-1,2.5l-4.4,0.8l0,3.8l4.4,0.8l1,2.5L44.4,23l2.7,2.7l3.7-2.6l2.5,1l0.8,4.4h3.8l0.8-4.4l2.5-1l3.7,2.6
	l2.7-2.7l-2.6-3.7L65.7,16.9z M56.1,19.8c-3,0-5.4-2.4-5.4-5.4c0-3,2.4-5.4,5.4-5.4c3,0,5.4,2.4,5.4,5.4
	C61.5,17.4,59.1,19.8,56.1,19.8z M36.5,46.4l2,2.9H16.7l2-2.9c0,0,0.5-0.7,1-0.9h15.9C36,45.8,36.5,46.4,36.5,46.4z M55,32.4
	c-0.2-0.8-0.2-1-0.2-1L52,30.8l-0.3-2.9L49.4,27l-2.5,1.8c0,0-1.7-1-3-2.4c-1.3-1.4-2.4-2.8-2.4-2.8l1.7-2.7l-0.9-2l-3.2-0.3
	c0,0-0.4-2.2-0.5-3c-0.1-0.9,0-2.3,0-2.3c-2.4-0.1-6.5-0.2-11.3-0.2c-8.3,0-13,0.4-13,0.4s-1.6,0.1-3.2,2c-0.7,0.8-2.5,3.5-4.1,6.1
	c-1,0-3.5,0.5-3.9,0.8c-0.5,0.5-0.7,2.5-0.6,2.7c0,0.1,1,0.2,2,0.3c-0.9,1.4-1.5,2.4-1.5,2.4s-2.5,3.1-2.9,4.6
	c-0.4,1.2,0.1,11.6,0.2,14.8v4.4c0,0.6,0.6,1.1,1.2,1.1h4.9c0.6,0,1.1-0.5,1.1-1.1v-3.4H14l2.5-3.6c0,0,0.8-1.1,1.5-1.2
	c0.7-0.1,18.5-0.1,19.1,0c0.7,0.1,1.5,1.2,1.5,1.2l2.5,3.6h6.4v3.4c0,0.6,0.5,1.1,1.2,1.1h4.9c0.6,0,1.1-0.5,1.1-1.1v-3.5
	C54.8,47,55.3,33.8,55,32.4z M5.6,36.2c0,0-1.1-0.3-1.4-1c-0.2-0.7,0-3.1,0-3.1s0.5-1.2,1.3-1.6c0.9-0.4,1.8,0,1.8,0l4.1,2.5l1,4.5
	L5.6,36.2z M27.6,39.7C27.6,39.7,27.5,39.7,27.6,39.7C27.6,39.7,27.6,39.7,27.6,39.7z M30.1,35.2h11.7c-0.1,0.4-0.2,0.7-0.4,1L30,37
	c-0.2,0.5-0.5,0.8-0.9,1.1l11.8-0.8c-0.3,0.4-0.6,0.7-0.9,0.9c-1.2,0.6-11.8,1.5-12.4,1.5c-0.6,0-11.3-0.9-12.4-1.5
	c-0.3-0.2-0.6-0.5-0.8-0.9L26,38.1c-0.4-0.3-0.7-0.7-0.9-1.1l-11.4-0.7c-0.2-0.4-0.3-0.7-0.4-1H25c0.1-0.4,0.4-0.8,0.7-1.1H13.2
	c0-0.1,0-0.1,0-0.2C13.3,33.2,14,33,14,33l13.5-0.8L41.1,33c0,0,0.7,0.1,0.9,0.9c0,0,0,0.1,0,0.2H29.5C29.8,34.4,30,34.7,30.1,35.2z
	 M51,35.2c-0.2,0.7-1.4,1-1.4,1l-6.8,1.2l1-4.5l4.1-2.5c0,0,0.9-0.4,1.8,0c0.9,0.4,1.3,1.6,1.3,1.6S51.3,34.5,51,35.2z"/>
</svg>
