<?xml version="1.0" encoding="utf-8"?>
<!-- Generator: Adobe Illustrator 18.1.1, SVG Export Plug-In . SVG Version: 6.00 Build 0)  -->
<svg version="1.1" id="Ebene_2" xmlns="http://www.w3.org/2000/svg" xmlns:xlink="http://www.w3.org/1999/xlink" x="0px" y="0px"
	 viewBox="0 0 70 60" enable-background="new 0 0 70 60" xml:space="preserve">
<path fill="#FFFFFF" d="M4.1,9v47h31V9H4.1z M14.1,50h-5v-5h5V50z M14.1,42h-5v-5h5V42z M14.1,34h-5v-5h5V34z M22.1,50h-5v-5h5V50z
	 M22.1,42h-5v-5h5V42z M22.1,34h-5v-5h5V34z M30.1,50h-5v-5h5V50z M30.1,42h-5v-5h5V42z M30.1,34h-5v-5h5V34z M30.1,22h-21v-8h21V22
	z"/>
</svg>
