<?xml version="1.0" encoding="utf-8"?>
<!-- Generator: Adobe Illustrator 18.1.1, SVG Export Plug-In . SVG Version: 6.00 Build 0)  -->
<svg version="1.1" id="Ebene_6" xmlns="http://www.w3.org/2000/svg" xmlns:xlink="http://www.w3.org/1999/xlink" x="0px" y="0px"
	 viewBox="0 0 25 25" enable-background="new 0 0 25 25" xml:space="preserve">
<path fill="#FFFFFF" d="M17.9,17.3c0.5-0.3,1.7,0.7,2.6,2.2c0.9,1.5,1.2,3,0.6,3.3l-3.5,2c-1.7,1-6.3-3.6-9.8-9.6
	C4.3,9.3,2.5,3,4.3,2l3.4-2c0,0,1.7,0.7,2.6,2.2c0.9,1.5,1.2,3,0.6,3.3L8.7,6.8c0,0,0.4,3.3,2.3,6.6c1.9,3.3,4.6,5.2,4.6,5.2
	L17.9,17.3z"/>
</svg>
