<?xml version="1.0" encoding="utf-8"?>
<!-- Generator: Adobe Illustrator 18.1.1, SVG Export Plug-In . SVG Version: 6.00 Build 0)  -->
<svg version="1.1" id="Ebene_2" xmlns="http://www.w3.org/2000/svg" xmlns:xlink="http://www.w3.org/1999/xlink" x="0px" y="0px"
	 viewBox="0 0 25 25" enable-background="new 0 0 25 25" xml:space="preserve">
<path fill="#FFFFFF" d="M22.2,8.4c-0.5-1.3-1.3-2.4-2.2-3.3c-1-1-2.1-1.7-3.3-2.2C15.3,2.3,13.9,2,12.5,2S9.7,2.3,8.4,2.8
	C7.2,3.4,6,4.1,5.1,5.1c-1,1-1.7,2.1-2.2,3.3C2.3,9.7,2,11.1,2,12.5c0,1.4,0.3,2.8,0.8,4.1c0.5,1.3,1.3,2.4,2.2,3.3
	c1,1,2.1,1.7,3.3,2.2c1.3,0.5,2.7,0.8,4.1,0.8s2.8-0.3,4.1-0.8c1.3-0.5,2.4-1.3,3.3-2.2c1-1,1.7-2.1,2.2-3.3
	c0.5-1.3,0.8-2.7,0.8-4.1C23,11.1,22.7,9.7,22.2,8.4z M18,17.1c-0.5-0.4-0.8-0.6-0.8-1.3c0-0.6,0.6-1.6,1-2.3
	c0.3-0.6,0.9-1.8,2.1-1.3c0.2,0.1,0.3,0.1,0.4,0.2c0,1.9-0.7,3.7-1.8,5.1C18.5,17.5,18.2,17.3,18,17.1z M12.5,4.4
	c3.7,0,6.9,2.5,7.8,6c-2.3-1.2-5-2-7.8-2c-2.8,0-5.5,0.7-7.9,2C5.6,7,8.7,4.4,12.5,4.4z M14,12.1c0,0.8-0.7,1.5-1.5,1.5
	S11,12.9,11,12.1s0.7-1.5,1.5-1.5S14,11.3,14,12.1z M7,17.1c-0.2,0.1-0.5,0.3-0.8,0.5c-1.1-1.4-1.8-3.2-1.8-5.1
	c0.1-0.1,0.2-0.2,0.4-0.2C6,11.8,6.5,13,6.9,13.6c0.4,0.7,1,1.6,1,2.3C7.8,16.5,7.5,16.8,7,17.1z M12.5,20.6c-1.9,0-3.6-0.6-5-1.7
	c1.4-0.9,3.2-1.4,5-1.4c1.8,0,3.5,0.5,5,1.4C16.1,20,14.4,20.6,12.5,20.6z"/>
</svg>
