<?xml version="1.0" encoding="utf-8"?>
<!-- Generator: Adobe Illustrator 18.1.1, SVG Export Plug-In . SVG Version: 6.00 Build 0)  -->
<svg version="1.1" id="Ebene_4" xmlns="http://www.w3.org/2000/svg" xmlns:xlink="http://www.w3.org/1999/xlink" x="0px" y="0px"
	 viewBox="0 0 25 25" enable-background="new 0 0 25 25" xml:space="preserve">
<path fill="#FFFFFF" d="M12.2,25 M12.2,24.9L12.2,24.9 M22.3,0H2.7v17h7.5l1.4,8h1.8l1.4-8h7.5V0z M17.6,8.5c0,2.8-2.3,5.1-5.1,5.1
	s-5.1-2.3-5.1-5.1s2.3-5.1,5.1-5.1S17.6,5.7,17.6,8.5z M12.7,4.2l0.6,3.9l3,2.4c0.3-0.6,0.5-1.3,0.5-2C16.8,6.2,15,4.3,12.7,4.2z
	 M8.2,8.5c0,0.7,0.2,1.4,0.5,2l3.1-2.4l0.5-3.9C10,4.3,8.2,6.2,8.2,8.5z M16.1,10.9l-3.6-1.4l-3.6,1.5c0.8,1.2,2.1,1.9,3.6,1.9
	C14,12.8,15.3,12,16.1,10.9z"/>
</svg>
