<?xml version="1.0" encoding="utf-8"?>
<!-- Generator: Adobe Illustrator 18.1.1, SVG Export Plug-In . SVG Version: 6.00 Build 0)  -->
<svg version="1.1" id="Ebene_2" xmlns="http://www.w3.org/2000/svg" xmlns:xlink="http://www.w3.org/1999/xlink" x="0px" y="0px"
	 viewBox="0 0 31 22" enable-background="new 0 0 31 22" xml:space="preserve">
<g id="Lozenge_2_">
	<g>
		<path fill="#999999" d="M30.7,4.8c0,0-0.3-2.1-1.2-3.1c-1.2-1.2-2.5-1.2-3.1-1.3C22,0.1,15.5,0.1,15.5,0.1h0c0,0-6.5,0-10.8,0.3
			C4,0.5,2.7,0.5,1.5,1.7C0.6,2.7,0.3,4.8,0.3,4.8S0,7.3,0,9.8v2.4c0,2.5,0.3,5,0.3,5s0.3,2.1,1.2,3.1c1.2,1.2,2.7,1.2,3.4,1.3
			c2.5,0.2,10.5,0.3,10.5,0.3s6.5,0,10.9-0.3c0.6-0.1,1.9-0.1,3.1-1.3c0.9-0.9,1.2-3.1,1.2-3.1s0.3-2.5,0.3-5V9.8
			C31,7.3,30.7,4.8,30.7,4.8z M12.3,15l0-8.7l8.4,4.4L12.3,15z"/>
	</g>
</g>
</svg>
