<?xml version="1.0" encoding="utf-8"?>
<!-- Generator: Adobe Illustrator 18.1.1, SVG Export Plug-In . SVG Version: 6.00 Build 0)  -->
<svg version="1.1" xmlns="http://www.w3.org/2000/svg" xmlns:xlink="http://www.w3.org/1999/xlink" x="0px" y="0px"
	 viewBox="0 0 31 22" enable-background="new 0 0 31 22" xml:space="preserve">
<g id="Ebene_1">
</g>
<g id="Ebene_2">
	<g>
		<path fill="#999999" d="M20,0H2C1.3,0,0,1.3,0,2V20c0,0.7,1.3,2,2,2h9.4v-8.4h-3v-3h3V8.3c0-2.8,2.2-4.5,4.7-4.5
			c1.2,0,1.9,0.1,2.2,0.2v2.9l-2.2,0c-1.4,0-1.6,0.7-1.6,1.6v2.2h3.8l-0.5,3h-3.3V22H20c0.7,0,2-1.3,2-2V2C22,1.3,20.7,0,20,0z"/>
	</g>
</g>
</svg>
