<?xml version="1.0" encoding="utf-8"?>
<!-- Generator: Adobe Illustrator 19.2.0, SVG Export Plug-In . SVG Version: 6.00 Build 0)  -->
<svg version="1.1" id="Ebene_2" xmlns="http://www.w3.org/2000/svg" xmlns:xlink="http://www.w3.org/1999/xlink" x="0px" y="0px"
	 viewBox="0 0 31 22" style="enable-background:new 0 0 31 22;" xml:space="preserve">
<style type="text/css">
	.st0{fill:#999999;}
</style>
<g>
	<path class="st0" d="M11,1.982c2.937,0,3.285,0.011,4.445,0.064c1.072,0.049,1.655,0.228,2.043,0.379
		c0.513,0.2,0.88,0.438,1.265,0.823s0.623,0.751,0.823,1.265c0.151,0.388,0.33,0.97,0.379,2.043c0.053,1.16,0.064,1.508,0.064,4.445
		s-0.011,3.285-0.064,4.445c-0.049,1.072-0.228,1.655-0.379,2.043c-0.2,0.513-0.438,0.88-0.823,1.265s-0.751,0.623-1.265,0.823
		c-0.388,0.151-0.97,0.33-2.043,0.379c-1.16,0.053-1.508,0.064-4.445,0.064s-3.285-0.011-4.445-0.064
		c-1.072-0.049-1.655-0.228-2.043-0.379c-0.513-0.2-0.88-0.438-1.265-0.823s-0.623-0.751-0.823-1.265
		c-0.151-0.388-0.33-0.97-0.379-2.043C1.993,14.285,1.982,13.937,1.982,11s0.011-3.285,0.064-4.445
		C2.095,5.483,2.274,4.9,2.425,4.513C2.625,4,2.863,3.633,3.248,3.248s0.751-0.623,1.265-0.823c0.388-0.151,0.97-0.33,2.043-0.379
		C7.715,1.993,8.063,1.982,11,1.982 M11,0C8.013,0,7.638,0.013,6.465,0.066c-1.171,0.053-1.97,0.239-2.67,0.511
		C3.071,0.859,2.458,1.235,1.846,1.846C1.235,2.458,0.859,3.071,0.577,3.795c-0.272,0.7-0.458,1.499-0.511,2.67
		C0.013,7.638,0,8.013,0,11s0.013,3.362,0.066,4.535c0.053,1.171,0.239,1.97,0.511,2.67c0.281,0.723,0.657,1.337,1.269,1.948
		c0.612,0.612,1.225,0.988,1.948,1.269c0.7,0.272,1.499,0.458,2.67,0.511C7.638,21.987,8.013,22,11,22s3.362-0.013,4.535-0.066
		c1.171-0.053,1.97-0.239,2.67-0.511c0.723-0.281,1.337-0.657,1.948-1.269c0.612-0.612,0.988-1.225,1.269-1.948
		c0.272-0.7,0.458-1.499,0.511-2.67C21.987,14.362,22,13.987,22,11s-0.013-3.362-0.066-4.535c-0.053-1.171-0.239-1.97-0.511-2.67
		c-0.281-0.723-0.657-1.337-1.269-1.948c-0.612-0.612-1.225-0.988-1.948-1.269c-0.7-0.272-1.499-0.458-2.67-0.511
		C14.362,0.013,13.987,0,11,0L11,0z"/>
	<path class="st0" d="M11,5.351C7.88,5.351,5.351,7.88,5.351,11S7.88,16.649,11,16.649S16.649,14.12,16.649,11S14.12,5.351,11,5.351
		z M11,14.667c-2.025,0-3.667-1.642-3.667-3.667S8.975,7.333,11,7.333S14.667,8.975,14.667,11S13.025,14.667,11,14.667z"/>
	<circle class="st0" cx="16.872" cy="5.128" r="1.32"/>
</g>
</svg>
