<svg id="Layer_1" data-name="Layer 1" xmlns="http://www.w3.org/2000/svg" viewBox="0 0 135.74 15.62"><defs><style>.cls-1{fill:none;}.cls-2{fill:#fff;}</style></defs><title>MB-Logo-White-mbtext_done-update(1)</title><g id="Layer_1-2" data-name="Layer 1"><rect class="cls-1" width="135.74" height="15.62"/><rect class="cls-2" x="87.06" y="8.72" width="5.09" height="1.21"/><rect class="cls-1" width="135.74" height="15.62"/><rect class="cls-1" width="135.74" height="15.62"/><rect class="cls-1" width="135.74" height="15.62"/><rect class="cls-1" width="135.74" height="15.62"/><rect class="cls-1" width="135.74" height="15.62"/><rect class="cls-1" width="135.74" height="15.62"/><rect class="cls-1" width="135.74" height="15.62"/><rect class="cls-1" width="135.74" height="15.62"/><rect class="cls-1" width="135.74" height="15.62"/><rect class="cls-1" width="135.74" height="15.62"/><rect class="cls-1" width="135.74" height="15.62"/><rect class="cls-1" width="135.74" height="15.62"/><rect class="cls-1" width="135.74" height="15.62"/><rect class="cls-1" width="135.74" height="15.62"/><rect class="cls-1" width="135.74" height="15.62"/><rect class="cls-1" width="135.74" height="15.62"/><rect class="cls-1" width="135.74" height="15.62"/><rect class="cls-1" width="135.74" height="15.62"/><rect class="cls-1" width="135.74" height="15.62"/><rect class="cls-1" width="135.74" height="15.62"/><rect class="cls-1" width="135.74" height="15.62"/><rect class="cls-1" width="135.74" height="15.62"/><rect class="cls-1" width="135.74" height="15.62"/><rect class="cls-1" width="135.74" height="15.62"/><rect class="cls-1" width="135.74" height="15.62"/><rect class="cls-1" width="135.74" height="15.62"/><rect class="cls-1" width="135.74" height="15.62"/><rect class="cls-1" width="135.74" height="15.62"/><rect class="cls-1" width="135.74" height="15.62"/><rect class="cls-1" width="135.74" height="15.62"/><rect class="cls-1" width="135.74" height="15.62"/><rect class="cls-1" width="135.74" height="15.62"/><rect class="cls-1" width="135.74" height="15.62"/><rect class="cls-1" width="135.74" height="15.62"/><rect class="cls-1" width="135.74" height="15.62"/><rect class="cls-1" width="135.74" height="15.62"/><rect class="cls-1" width="135.74" height="15.62"/><rect class="cls-1" width="135.74" height="15.62"/><rect class="cls-1" width="135.74" height="15.62"/><rect class="cls-1" width="135.74" height="15.62"/><rect class="cls-1" width="135.74" height="15.62"/><rect class="cls-1" width="135.74" height="15.62"/><rect class="cls-1" width="135.74" height="15.62"/><rect class="cls-1" width="135.74" height="15.62"/><rect class="cls-1" width="135.74" height="15.62"/><rect class="cls-1" width="135.74" height="15.62"/><rect class="cls-1" width="135.74" height="15.62"/><rect class="cls-1" width="135.74" height="15.62"/><rect class="cls-1" width="135.74" height="15.62"/><rect class="cls-1" width="135.74" height="15.62"/><rect class="cls-1" width="135.74" height="15.62"/><rect class="cls-1" width="135.74" height="15.62"/><rect class="cls-1" width="135.74" height="15.62"/><rect class="cls-1" width="135.74" height="15.62"/><rect class="cls-1" width="135.74" height="15.62"/><rect class="cls-1" width="135.74" height="15.62"/><rect class="cls-1" width="135.74" height="15.62"/><rect class="cls-1" width="135.74" height="15.62"/><rect class="cls-1" width="135.74" height="15.62"/><rect class="cls-1" width="135.74" height="15.62"/><rect class="cls-1" width="135.74" height="15.62"/><rect class="cls-1" width="135.74" height="15.62"/><rect class="cls-1" width="135.74" height="15.62"/><rect class="cls-1" width="135.74" height="15.62"/><rect class="cls-1" width="135.74" height="15.62"/><rect class="cls-1" width="135.74" height="15.62"/><rect class="cls-1" width="135.74" height="15.62"/><rect class="cls-1" width="135.74" height="15.62"/><rect class="cls-1" width="135.74" height="15.62"/><rect class="cls-1" width="135.74" height="15.62"/><rect class="cls-1" width="135.74" height="15.62"/><rect class="cls-1" width="135.74" height="15.62"/><rect class="cls-1" width="135.74" height="15.62"/><rect class="cls-1" width="135.74" height="15.62"/><rect class="cls-1" width="135.74" height="15.62"/><rect class="cls-1" width="135.74" height="15.62"/><rect class="cls-1" width="135.74" height="15.62"/><rect class="cls-1" width="135.74" height="15.62"/><rect class="cls-1" width="135.74" height="15.62"/><path class="cls-2" d="M3.33,1.67,2.84,13.42v.24c0,1,.24,1.21,1.94,1.33v.48a17.41,17.41,0,0,0-2.18-.12,19.09,19.09,0,0,0-2.3.12V15c1.57-.12,1.82-.24,1.82-1.57L2.6,2.28V2.16C2.6,1.07,2.24.95.66.83V.22A10.46,10.46,0,0,0,2.48.34,13.16,13.16,0,0,0,4.66.22L8.9,11.72,13.14.22a14.69,14.69,0,0,0,2.18.12A10.46,10.46,0,0,0,17.13.22V.83c-1.57.12-1.94.36-1.94,1.33v.12l.24,11.14c0,1.21.24,1.45,1.82,1.57v.48a26.64,26.64,0,0,0-2.78-.12,25.49,25.49,0,0,0-2.78.12V15c1.57-.12,1.94-.36,1.94-1.45v-.12L13.38,1.67,9.62,11.72l-.24.73L9,13.3l-.24.85-.24.73H8.17l-.24-.73-.36-.85-.36-.85-.12-.73Z" transform="translate(-0.3 -0.1)"/><rect class="cls-1" width="135.74" height="15.62"/><rect class="cls-1" width="135.74" height="15.62"/><rect class="cls-1" width="135.74" height="15.62"/><rect class="cls-1" width="135.74" height="15.62"/><rect class="cls-1" width="135.74" height="15.62"/><rect class="cls-1" width="135.74" height="15.62"/><rect class="cls-1" width="135.74" height="15.62"/><rect class="cls-1" width="135.74" height="15.62"/><rect class="cls-1" width="135.74" height="15.62"/><rect class="cls-1" width="135.74" height="15.62"/><rect class="cls-1" width="135.74" height="15.62"/><rect class="cls-1" width="135.74" height="15.62"/><rect class="cls-1" width="135.74" height="15.62"/><path class="cls-2" d="M23.19,14.87c-2.06,0-2.91-1.57-3-5.09h6.78c0-3.51-1.45-5.33-4.12-5.33s-4.36,2.18-4.36,5.69,1.7,5.57,4.6,5.57c2.18,0,3.63-1.33,4-3.75h-.85c-.36,1.94-1.33,2.91-3,2.91M20.28,8.94c.24-2.54,1.09-4,2.54-4s2.18,1.21,2.3,4Z" transform="translate(-0.3 -0.1)"/><rect class="cls-1" width="135.74" height="15.62"/><rect class="cls-1" width="135.74" height="15.62"/><rect class="cls-1" width="135.74" height="15.62"/><rect class="cls-1" width="135.74" height="15.62"/><rect class="cls-1" width="135.74" height="15.62"/><rect class="cls-1" width="135.74" height="15.62"/><rect class="cls-1" width="135.74" height="15.62"/><rect class="cls-1" width="135.74" height="15.62"/><rect class="cls-1" width="135.74" height="15.62"/><rect class="cls-1" width="135.74" height="15.62"/><rect class="cls-1" width="135.74" height="15.62"/><path class="cls-2" d="M28.39,5.31V4.82a17.61,17.61,0,0,0,3-.48c.12.85.12,1.21.24,1.94v.24a2.8,2.8,0,0,1,2.66-2.06,1.81,1.81,0,0,1,1.94,1.82,1,1,0,0,1-1,1.09c-.48,0-1-.36-1-.73V5.91c0-.36-.24-.48-.73-.48-1.21,0-1.94,1.45-1.94,3.63v4.72c0,1,.24,1.21,1.57,1.21v.48a20.61,20.61,0,0,0-2.54-.12,20.61,20.61,0,0,0-2.54.12V15c1.33-.12,1.57-.24,1.57-1.21V6.4c0-1-.12-1.09-1.33-1.09Z" transform="translate(-0.3 -0.1)"/><rect class="cls-1" width="135.74" height="15.62"/><rect class="cls-1" width="135.74" height="15.62"/><rect class="cls-1" width="135.74" height="15.62"/><rect class="cls-1" width="135.74" height="15.62"/><rect class="cls-1" width="135.74" height="15.62"/><rect class="cls-1" width="135.74" height="15.62"/><rect class="cls-1" width="135.74" height="15.62"/><rect class="cls-1" width="135.74" height="15.62"/><rect class="cls-1" width="135.74" height="15.62"/><rect class="cls-1" width="135.74" height="15.62"/><rect class="cls-1" width="135.74" height="15.62"/><rect class="cls-1" width="135.74" height="15.62"/><path class="cls-2" d="M44.74,4.22V8h-.48C43.89,6,43,5.06,41.59,5.06c-1.7,0-2.66,1.82-2.66,5.09s.85,4.72,2.66,4.72c1.45,0,2.18-1,2.54-3h1c-.24,2.42-1.57,3.75-3.63,3.75-2.66,0-4.36-2.18-4.36-5.57s1.82-5.69,4.48-5.69a2.86,2.86,0,0,1,2.3,1L44.5,4.1h.24Z" transform="translate(-0.3 -0.1)"/><rect class="cls-1" width="135.74" height="15.62"/><rect class="cls-1" width="135.74" height="15.62"/><rect class="cls-1" width="135.74" height="15.62"/><rect class="cls-1" width="135.74" height="15.62"/><rect class="cls-1" width="135.74" height="15.62"/><rect class="cls-1" width="135.74" height="15.62"/><rect class="cls-1" width="135.74" height="15.62"/><rect class="cls-1" width="135.74" height="15.62"/><rect class="cls-1" width="135.74" height="15.62"/><rect class="cls-1" width="135.74" height="15.62"/><rect class="cls-1" width="135.74" height="15.62"/><rect class="cls-1" width="135.74" height="15.62"/><rect class="cls-1" width="135.74" height="15.62"/><path class="cls-2" d="M51.4,14.87c-2.06,0-2.91-1.57-3-5.09h6.78c0-3.51-1.45-5.33-4.12-5.33s-4.36,2.18-4.36,5.69,1.7,5.57,4.6,5.57c2.18,0,3.63-1.33,4-3.75h-.85c-.36,1.94-1.33,2.91-3,2.91M48.49,8.94c.24-2.54,1.09-4,2.54-4s2.18,1.21,2.3,4Z" transform="translate(-0.3 -0.1)"/><rect class="cls-1" width="135.74" height="15.62"/><rect class="cls-1" width="135.74" height="15.62"/><rect class="cls-1" width="135.74" height="15.62"/><rect class="cls-1" width="135.74" height="15.62"/><rect class="cls-1" width="135.74" height="15.62"/><rect class="cls-1" width="135.74" height="15.62"/><rect class="cls-1" width="135.74" height="15.62"/><rect class="cls-1" width="135.74" height="15.62"/><rect class="cls-1" width="135.74" height="15.62"/><rect class="cls-1" width="135.74" height="15.62"/><rect class="cls-1" width="135.74" height="15.62"/><rect class="cls-1" width="135.74" height="15.62"/><path class="cls-2" d="M65.69,13.06V.1A28.16,28.16,0,0,1,62.3.71v.36c1.45,0,1.57.12,1.57,1.33v4C63,5.06,62.42,4.58,61.21,4.58c-2.42,0-4.12,2.3-4.12,5.57s1.7,5.57,4.24,5.57a2.88,2.88,0,0,0,2.78-1.82,9.65,9.65,0,0,0,.36,1.82,13.19,13.19,0,0,1,2.66-.48h.36v-.36c-1.7-.24-1.82-.36-1.82-1.82M61.45,15c-1.57,0-2.54-1.7-2.54-5s.85-4.84,2.42-4.84,2.54,1.7,2.54,5.09C64,13.42,63.14,15,61.45,15" transform="translate(-0.3 -0.1)"/><rect class="cls-1" width="135.74" height="15.62"/><rect class="cls-1" width="135.74" height="15.62"/><rect class="cls-1" width="135.74" height="15.62"/><rect class="cls-1" width="135.74" height="15.62"/><rect class="cls-1" width="135.74" height="15.62"/><rect class="cls-1" width="135.74" height="15.62"/><rect class="cls-1" width="135.74" height="15.62"/><rect class="cls-1" width="135.74" height="15.62"/><rect class="cls-1" width="135.74" height="15.62"/><rect class="cls-1" width="135.74" height="15.62"/><rect class="cls-1" width="135.74" height="15.62"/><rect class="cls-1" width="135.74" height="15.62"/><path class="cls-2" d="M73.07,14.87c-2.06,0-2.91-1.57-3-5.09h6.78c0-3.51-1.45-5.33-4.12-5.33s-4.36,2.18-4.36,5.69S70,15.72,73,15.72c2.18,0,3.63-1.33,4-3.75H76.1c-.48,1.94-1.45,2.91-3,2.91M70,8.94c.24-2.54,1.09-4,2.54-4s2.18,1.21,2.3,4Z" transform="translate(-0.3 -0.1)"/><rect class="cls-1" width="135.74" height="15.62"/><rect class="cls-1" width="135.74" height="15.62"/><rect class="cls-1" width="135.74" height="15.62"/><rect class="cls-1" width="135.74" height="15.62"/><rect class="cls-1" width="135.74" height="15.62"/><rect class="cls-1" width="135.74" height="15.62"/><rect class="cls-1" width="135.74" height="15.62"/><rect class="cls-1" width="135.74" height="15.62"/><rect class="cls-1" width="135.74" height="15.62"/><rect class="cls-1" width="135.74" height="15.62"/><rect class="cls-1" width="135.74" height="15.62"/><path class="cls-2" d="M78.64,15.72V11.85h.48c.36,2.06,1.33,3,2.91,3a2.11,2.11,0,0,0,2.3-2.06c0-.73-.48-1.33-1.57-1.82l-.85-.36-.85-.36c-1.7-.73-2.18-1.45-2.18-2.66a3.1,3.1,0,0,1,3.39-3,4,4,0,0,1,2.3.73l.36-1h.36V7.85h-.48c-.24-1.82-1-2.66-2.42-2.66a2.05,2.05,0,0,0-2.18,1.94c0,.85.36,1.21,2.42,2.06l1,.36c1.7.73,2.3,1.45,2.3,2.78a3.35,3.35,0,0,1-3.63,3.27,3.64,3.64,0,0,1-2.66-1l-.48,1.09Z" transform="translate(-0.3 -0.1)"/><rect class="cls-1" width="135.74" height="15.62"/><rect class="cls-1" width="135.74" height="15.62"/><rect class="cls-1" width="135.74" height="15.62"/><rect class="cls-1" width="135.74" height="15.62"/><rect class="cls-1" width="135.74" height="15.62"/><rect class="cls-1" width="135.74" height="15.62"/><rect class="cls-1" width="135.74" height="15.62"/><rect class="cls-1" width="135.74" height="15.62"/><rect class="cls-1" width="135.74" height="15.62"/><rect class="cls-1" width="135.74" height="15.62"/><rect class="cls-1" width="135.74" height="15.62"/><rect class="cls-1" width="135.74" height="15.62"/><rect class="cls-1" width="135.74" height="15.62"/><path class="cls-2" d="M103.1,4a3.68,3.68,0,0,0-1.33-2.91A4.66,4.66,0,0,0,98.62.22H92.69V.83c1.57.12,1.82.36,1.82,1.57V13.3c0,1.21-.12,1.33-1.82,1.57v.48h5.69a5.8,5.8,0,0,0,3.51-.85A4.35,4.35,0,0,0,103.83,11a3.67,3.67,0,0,0-1.45-3,3.58,3.58,0,0,0-1.82-.73A3.22,3.22,0,0,0,103.1,4M96.44,1.07h1.94c1.94,0,2.78,1,2.78,3a3.62,3.62,0,0,1-.73,2.42c-.48.61-1.09.73-2.42.73H96.44Zm2.18,6.78a3.21,3.21,0,0,1,2.42.73,3.75,3.75,0,0,1,.85,2.54c0,2.3-1.09,3.51-3.15,3.51h-.85c-1.21,0-1.45-.12-1.45-1.21V7.85Z" transform="translate(-0.3 -0.1)"/><rect class="cls-1" width="135.74" height="15.62"/><rect class="cls-1" width="135.74" height="15.62"/><rect class="cls-1" width="135.74" height="15.62"/><rect class="cls-1" width="135.74" height="15.62"/><rect class="cls-1" width="135.74" height="15.62"/><rect class="cls-1" width="135.74" height="15.62"/><rect class="cls-1" width="135.74" height="15.62"/><rect class="cls-1" width="135.74" height="15.62"/><rect class="cls-1" width="135.74" height="15.62"/><rect class="cls-1" width="135.74" height="15.62"/><rect class="cls-1" width="135.74" height="15.62"/><rect class="cls-1" width="135.74" height="15.62"/><path class="cls-2" d="M110.49,14.87c-2.06,0-2.91-1.57-3-5.09h6.78c0-3.51-1.45-5.33-4.12-5.33s-4.36,2.18-4.36,5.69,1.7,5.57,4.6,5.57c2.18,0,3.63-1.33,4-3.75h-.85c-.48,1.94-1.45,2.91-3,2.91m-3-5.93c.24-2.54,1.09-4,2.54-4s2.18,1.21,2.3,4Z" transform="translate(-0.3 -0.1)"/><rect class="cls-1" width="135.74" height="15.62"/><rect class="cls-1" width="135.74" height="15.62"/><rect class="cls-1" width="135.74" height="15.62"/><rect class="cls-1" width="135.74" height="15.62"/><rect class="cls-1" width="135.74" height="15.62"/><rect class="cls-1" width="135.74" height="15.62"/><rect class="cls-1" width="135.74" height="15.62"/><rect class="cls-1" width="135.74" height="15.62"/><rect class="cls-1" width="135.74" height="15.62"/><rect class="cls-1" width="135.74" height="15.62"/><rect class="cls-1" width="135.74" height="15.62"/><path class="cls-2" d="M115.33,5.43V4.94a10.1,10.1,0,0,0,3-.73,9.6,9.6,0,0,1,.24,2.06,3.46,3.46,0,0,1,3-1.82,3.28,3.28,0,0,1,3,1.82A4.82,4.82,0,0,1,125,8.33v5.45c0,1,.24,1.21,1.57,1.21v.48a19.81,19.81,0,0,0-2.42-.12,17.92,17.92,0,0,0-2.42.12V15c1.21,0,1.57-.24,1.57-1.21V8.33c0-1.94-.61-2.78-2.06-2.78s-2.3,1-2.3,2.78v5.45c0,.85.24,1.09,1.45,1.21v.48a24.28,24.28,0,0,0-4.84,0V15c1.33-.12,1.57-.24,1.57-1.21V6.52c0-1-.12-1.09-1.33-1.09h-.48" transform="translate(-0.3 -0.1)"/><rect class="cls-1" width="135.74" height="15.62"/><rect class="cls-1" width="135.74" height="15.62"/><rect class="cls-1" width="135.74" height="15.62"/><rect class="cls-1" width="135.74" height="15.62"/><rect class="cls-1" width="135.74" height="15.62"/><rect class="cls-1" width="135.74" height="15.62"/><rect class="cls-1" width="135.74" height="15.62"/><rect class="cls-1" width="135.74" height="15.62"/><rect class="cls-1" width="135.74" height="15.62"/><rect class="cls-1" width="135.74" height="15.62"/><rect class="cls-1" width="135.74" height="15.62"/><rect class="cls-1" width="135.74" height="15.62"/><path class="cls-2" d="M127.44,15.36l6.18-10.05h-2.78c-1.45,0-1.82.36-2.66,2.3h-.48l.48-2.91h7.75l-6.18,10.05h2.66c1.57,0,2.18-.61,2.91-2.66h.48l-.61,3.27Z" transform="translate(-0.3 -0.1)"/></g></svg>